<svg xmlns="http://www.w3.org/2000/svg">
  <symbol id="man" viewBox="0 0 50 50">
    <path fill-rule="evenodd" clip-rule="evenodd" d="M34.7292 27.3542C37.5834 29.2917 39.5834 31.9167 39.5834 35.4167V41.6667H47.9167V35.4167C47.9167 30.875 40.4792 28.1875 34.7292 27.3542Z" />
    <path d="M18.75 25C23.3524 25 27.0834 21.269 27.0834 16.6667C27.0834 12.0643 23.3524 8.33333 18.75 8.33333C14.1476 8.33333 10.4167 12.0643 10.4167 16.6667C10.4167 21.269 14.1476 25 18.75 25Z"/>
    <path fill-rule="evenodd" clip-rule="evenodd" d="M31.25 25C35.8541 25 39.5833 21.2708 39.5833 16.6667C39.5833 12.0625 35.8541 8.33333 31.25 8.33333C30.2708 8.33333 29.3541 8.54166 28.4791 8.83333C30.2719 11.0504 31.2499 13.8154 31.2499 16.6667C31.2499 19.5179 30.2719 22.2829 28.4791 24.5C29.3541 24.7917 30.2708 25 31.25 25ZM18.75 27.0833C13.1875 27.0833 2.08331 29.875 2.08331 35.4167V41.6667H35.4166V35.4167C35.4166 29.875 24.3125 27.0833 18.75 27.0833Z"/>
  </symbol>
  <symbol id="fire" viewBox="0 0 57 57">
      <path d="M41.8244 26.7231C41.2739 26.0135 40.6037 25.3985 39.9813 24.7835C38.3776 23.3642 36.5585 22.3471 35.0265 20.8569C31.4601 17.4035 30.6702 11.7029 32.9441 7.32693C30.6702 7.87097 28.6835 9.10097 26.984 10.4492C20.7845 15.3692 18.343 24.0502 21.2632 31.5012C21.359 31.7377 21.4547 31.9742 21.4547 32.2817C21.4547 32.8021 21.0957 33.2752 20.617 33.4644C20.0664 33.701 19.492 33.559 19.0372 33.1806C18.9005 33.0689 18.7868 32.9324 18.7021 32.7785C15.9973 29.396 15.5664 24.5469 17.3856 20.6677C13.3882 23.8846 11.2101 29.325 11.5212 34.4579C11.6648 35.6406 11.8085 36.8233 12.2154 38.006C12.5505 39.4252 13.1968 40.8444 13.9148 42.0981C16.4999 46.1902 20.976 49.1233 25.7872 49.7146C30.9095 50.3533 36.3909 49.4308 40.3164 45.93C44.6968 42.0035 46.2287 35.7115 43.9787 30.3185L43.6675 29.7035C43.1648 28.6154 41.8244 26.7231 41.8244 26.7231ZM34.2606 41.625C33.5904 42.1927 32.4893 42.8077 31.6276 43.0442C28.9468 43.9904 26.2659 42.6658 24.6861 41.1046C27.5345 40.4423 29.234 38.3608 29.7366 36.2556C30.1436 34.3633 29.3776 32.8021 29.0664 30.9808C28.7792 29.2304 28.8271 27.7402 29.4734 26.1081C29.9281 27.0069 30.4069 27.9058 30.9813 28.6154C32.8244 30.9808 35.7207 32.0215 36.343 35.2385C36.4388 35.5696 36.4867 35.9008 36.4867 36.2556C36.5585 38.1952 35.6968 40.324 34.2606 41.625Z"/>
  </symbol>
  <symbol id="like" viewBox="0 0 46 46">
      <path d="M44.0834 19.1667C44.0834 18.15 43.6795 17.175 42.9606 16.4561C42.2417 15.7372 41.2667 15.3333 40.25 15.3333H28.1367L29.9767 6.57417C30.015 6.3825 30.0342 6.17167 30.0342 5.96083C30.0342 5.175 29.7084 4.44667 29.1909 3.92917L27.1592 1.91667L14.5475 14.5283C13.8384 15.2375 13.4167 16.1958 13.4167 17.25V36.4167C13.4167 37.4333 13.8206 38.4084 14.5394 39.1272C15.2583 39.8461 16.2334 40.25 17.25 40.25H34.5C36.0909 40.25 37.4517 39.2917 38.0267 37.9117L43.815 24.3992C43.9875 23.9583 44.0834 23.4983 44.0834 23V19.1667ZM1.91669 40.25H9.58335V17.25H1.91669V40.25Z"/>
  </symbol>
  <symbol id="crown" viewBox="0 0 50 50">
    <path d="M10.4167 33.3333L6.25 10.4167L17.7083 20.8333L25 8.33333L32.2917 20.8333L43.75 10.4167L39.5833 33.3333H10.4167ZM39.5833 39.5833C39.5833 40.8333 38.75 41.6667 37.5 41.6667H12.5C11.25 41.6667 10.4167 40.8333 10.4167 39.5833V37.5H39.5833V39.5833Z"/>
  </symbol>
  <symbol id="hand" viewBox="0 0 46 46">
      <path d="M23.1916 40.25C22.6486 40.25 22.1937 40.066 21.827 39.698C21.4603 39.33 21.2763 38.8751 21.275 38.3333C21.275 38.1097 21.3229 37.8778 21.4187 37.6376C21.5146 37.3974 21.6583 37.182 21.85 36.9917L30.7146 28.1271L29.325 26.7375L20.5083 35.6021C20.3166 35.7937 20.109 35.9375 19.8854 36.0333C19.6618 36.1292 19.4222 36.1771 19.1666 36.1771C18.6236 36.1771 18.1681 35.9937 17.8001 35.627C17.4321 35.2603 17.2487 34.8047 17.25 34.2604C17.25 33.941 17.2979 33.6771 17.3937 33.4688C17.4896 33.2605 17.6173 33.0772 17.7771 32.9187L26.6416 24.0542L25.3 22.7125L16.4354 31.5292C16.2437 31.7208 16.0361 31.8646 15.8125 31.9604C15.5889 32.0562 15.3333 32.1042 15.0458 32.1042C14.5347 32.1042 14.0875 31.9125 13.7041 31.5292C13.3208 31.1458 13.1291 30.6986 13.1291 30.1875C13.1291 29.9319 13.1771 29.6924 13.2729 29.4687C13.3687 29.2451 13.5125 29.0375 13.7041 28.8458L22.5687 19.9812L21.1791 18.6396L12.3625 27.5042C12.2028 27.6639 12.0111 27.7917 11.7875 27.8875C11.5639 27.9833 11.2923 28.0312 10.9729 28.0312C10.4298 28.0312 9.97431 27.8472 9.60631 27.4792C9.23831 27.1112 9.05495 26.6564 9.05623 26.1146C9.05623 25.859 9.10415 25.6194 9.19998 25.3958C9.29581 25.1722 9.43956 24.9646 9.63123 24.7729L20.3166 14.0875L27.5041 21.3229C27.8555 21.6743 28.2708 21.9541 28.75 22.1624C29.2291 22.3707 29.7083 22.4742 30.1875 22.4729C31.2097 22.4729 32.1041 22.1132 32.8708 21.3938C33.6375 20.6744 34.0208 19.7564 34.0208 18.6396C34.0208 18.1924 33.941 17.7292 33.7812 17.25C33.6215 16.7708 33.334 16.3236 32.9187 15.9083L24.3416 7.33124C24.8847 6.82013 25.4916 6.42849 26.1625 6.15633C26.8333 5.88416 27.5041 5.74872 28.175 5.74999C29.0055 5.74999 29.7722 5.88608 30.475 6.15824C31.1778 6.43041 31.8166 6.85335 32.3916 7.42708L40.4896 15.5729C41.0646 16.1479 41.4881 16.7868 41.7603 17.4896C42.0325 18.1924 42.1679 19.0069 42.1666 19.9333C42.1666 20.5722 42.0229 21.2188 41.7354 21.873C41.4479 22.5272 41.0326 23.1265 40.4896 23.6708L24.5333 39.675C24.2778 39.9305 24.0541 40.0903 23.8625 40.1542C23.6708 40.218 23.4472 40.25 23.1916 40.25ZM6.75623 24.9167L5.5104 23.6708C4.96734 23.1597 4.55206 22.5528 4.26456 21.85C3.97706 21.1472 3.83331 20.4125 3.83331 19.6458C3.83331 18.8153 3.99304 18.0486 4.31248 17.3458C4.63192 16.643 5.03123 16.0521 5.5104 15.5729L13.6083 7.42708C14.1194 6.91597 14.7264 6.50835 15.4291 6.20424C16.1319 5.90013 16.8187 5.74872 17.4896 5.74999C18.3521 5.74999 19.1187 5.8701 19.7896 6.11033C20.4604 6.35055 21.1153 6.78947 21.7541 7.42708L31.5771 17.25C31.7687 17.4417 31.9125 17.6493 32.0083 17.8729C32.1041 18.0965 32.1521 18.3361 32.1521 18.5917C32.1521 19.1028 31.9604 19.55 31.5771 19.9333C31.1937 20.3167 30.7465 20.5083 30.2354 20.5083C29.9479 20.5083 29.7083 20.4681 29.5166 20.3876C29.325 20.3071 29.1173 20.1557 28.8937 19.9333L20.2687 11.4042L6.75623 24.9167Z"/>
  </symbol>
  <symbol id="quastion" viewBox="0 0 40 40">
      <path d="M20 36.6667C10.795 36.6667 3.33331 29.205 3.33331 20C3.33331 10.795 10.795 3.33334 20 3.33334C29.205 3.33334 36.6666 10.795 36.6666 20C36.6666 29.205 29.205 36.6667 20 36.6667ZM18.3333 25V28.3333H21.6666V25H18.3333ZM21.6666 22.2583C23.0061 21.8546 24.156 20.9833 24.9069 19.8029C25.6578 18.6226 25.9598 17.2118 25.7579 15.8275C25.5559 14.4431 24.8635 13.1774 23.8067 12.2608C22.7498 11.3441 21.3989 10.8376 20 10.8333C18.6514 10.8332 17.3444 11.3003 16.3013 12.155C15.2582 13.0097 14.5433 14.1994 14.2783 15.5217L17.5483 16.1767C17.6411 15.7124 17.8638 15.284 18.1906 14.9414C18.5173 14.5987 18.9347 14.3559 19.394 14.2412C19.8534 14.1265 20.3359 14.1445 20.7853 14.2933C21.2348 14.4421 21.6328 14.7154 21.933 15.0815C22.2332 15.4477 22.4233 15.8915 22.4811 16.3614C22.5389 16.8313 22.4621 17.308 22.2596 17.736C22.0571 18.164 21.7372 18.5256 21.3372 18.7789C20.9372 19.0322 20.4734 19.1666 20 19.1667C19.558 19.1667 19.134 19.3423 18.8215 19.6548C18.5089 19.9674 18.3333 20.3913 18.3333 20.8333V23.3333H21.6666V22.2583Z"/>
  </symbol>
  <symbol id="heart" viewBox="0 0 44 44">
      <path d="M22 39.1417L19.3417 36.7217C9.90002 28.16 3.66669 22.495 3.66669 15.5833C3.66669 9.91833 8.10335 5.5 13.75 5.5C16.94 5.5 20.0017 6.985 22 9.31333C23.9984 6.985 27.06 5.5 30.25 5.5C35.8967 5.5 40.3334 9.91833 40.3334 15.5833C40.3334 22.495 34.1 28.16 24.6584 36.7217L22 39.1417Z"/>
  </symbol>
</svg>